<svg xmlns="http://www.w3.org/2000/svg" width="64" height="64" viewBox="0 0 64 64" fill="none">
  <defs>
    <linearGradient id="bg" x1="8" y1="6" x2="56" y2="58" gradientUnits="userSpaceOnUse">
      <stop offset="0" stop-color="#172554"/>
      <stop offset="1" stop-color="#0B1220"/>
    </linearGradient>
    <linearGradient id="roof" x1="16" y1="18" x2="48" y2="36" gradientUnits="userSpaceOnUse">
      <stop offset="0" stop-color="#FCD34D"/>
      <stop offset="1" stop-color="#F59E0B"/>
    </linearGradient>
    <linearGradient id="flow" x1="22" y1="43" x2="41" y2="30" gradientUnits="userSpaceOnUse">
      <stop offset="0" stop-color="#22D3EE"/>
      <stop offset="1" stop-color="#38BDF8"/>
    </linearGradient>
    <filter id="glow" x="0" y="0" width="64" height="64" filterUnits="userSpaceOnUse" color-interpolation-filters="sRGB">
      <feGaussianBlur stdDeviation="1.6"/>
    </filter>
  </defs>

  <rect x="4" y="4" width="56" height="56" rx="16" fill="url(#bg)"/>
  <rect x="4.5" y="4.5" width="55" height="55" rx="15.5" stroke="#334155"/>

  <circle cx="49" cy="16" r="6" fill="#F59E0B" opacity="0.22" filter="url(#glow)"/>
  <circle cx="15" cy="51" r="7" fill="#0EA5E9" opacity="0.18" filter="url(#glow)"/>

  <path d="M14 31L32 17L50 31" stroke="url(#roof)" stroke-width="4.2" stroke-linecap="round" stroke-linejoin="round"/>
  <path d="M20 30V47H44V30" stroke="#E2E8F0" stroke-width="3" stroke-linecap="round" stroke-linejoin="round"/>
  <path d="M30 47V38H34V47" fill="#FBBF24"/>
  <path d="M24 40L29 35L34 38L40 31" stroke="url(#flow)" stroke-width="2.8" stroke-linecap="round" stroke-linejoin="round"/>
  <circle cx="40" cy="31" r="2" fill="#7DD3FC"/>
</svg>
